#!OML:ASF E:\Style4\Style4.ASF
:FULLY-SPECIFIED
:DEGREES
3370
root -0.387337 17.36 -3.54306 2.61881 -1.27884 1.81446
lowerback 15.4282 2.58215 -0.43732
upperback 7.61017 3.32999 0.42501
thorax -0.630872 1.64092 0.171165
lowerneck 1.47691 -5.03708 -5.97569
upperneck 1.5609 -6.84604 5.74119
head 0.674192 -3.44151 2.83073
rclavicle 2.20651e-014 -7.95139e-016
rhumerus 24.594 12.598 -56.8113
rradius 49.4328
rwrist 8.88516
rhand -21.5993 14.2493
rfingers 7.12502
rthumb 4.79566 -15.6765
lclavicle 2.20651e-014 -7.95139e-016
lhumerus 24.3523 -24.5912 50.8331
lradius 59.6552
lwrist -3.62226
lhand -16.1449 29.3741
lfingers 7.12502
lthumb 10.0604 59.1136
rfemur -28.4886 -1.27322 17.4359
rtibia 43.1491
rfoot -16.6572 -9.43547
rtoes -9.41401
lfemur -25.6936 2.83409 -20.6003
ltibia 42.3373
lfoot -19.1425 8.24389
ltoes -13.2377
3371
root -0.387999 17.358 -3.53739 2.59405 -1.2541 1.78645
lowerback 15.4728 2.57502 -0.431413
upperback 7.58511 3.3218 0.450241
thorax -0.681981 1.63653 0.192625
lowerneck 1.57565 -5.01945 -5.95938
upperneck 1.40425 -6.82232 5.72123
head 0.604237 -3.431 2.82658
rclavicle -2.98177e-014 6.36111e-015
rhumerus 24.4417 13.199 -56.1663
rradius 49.6642
rwrist 7.78787
rhand -21.0641 14.1187
rfingers 7.12502
rthumb 5.31246 -15.7947
lclavicle -2.98177e-014 6.36111e-015
lhumerus 24.3086 -25.4529 50.1274
lradius 59.9874
lwrist -2.60962
lhand -15.8308 29.1998
lfingers 7.12502
lthumb 10.3634 58.9244
rfemur -28.4502 -1.25213 17.4675
rtibia 43.185
rfoot -16.6913 -9.47491
rtoes -9.24222
lfemur -25.6763 2.84931 -20.5675
ltibia 42.3901
lfoot -19.1668 8.21009
ltoes -13.157
3372
root -0.386237 17.3566 -3.53153 2.61417 -1.32565 1.75093
lowerback 15.4436 2.5882 -0.44805
upperback 7.5651 3.33745 0.478492
thorax -0.690549 1.6433 0.229623
lowerneck 1.62848 -5.01149 -5.87453
upperneck 1.2478 -6.80699 5.5869
head 0.535662 -3.42377 2.77015
rclavicle 4.1546e-014 -1.07344e-014
rhumerus 24.2749 13.9285 -55.4327
rradius 49.9823
rwrist 6.39975
rhand -20.1907 13.8866
rfingers 7.12502
rthumb 6.15573 -16.004
lclavicle 4.1546e-014 -1.07344e-014
lhumerus 24.1947 -26.3261 49.3883
lradius 60.415
lwrist -1.59672
lhand -15.1923 28.9904
lfingers 7.12502
lthumb 10.9793 58.6833
rfemur -28.4804 -1.18131 17.5018
rtibia 43.212
rfoot -16.6991 -9.52187
rtoes -9.32051
lfemur -25.6911 2.91333 -20.5376
ltibia 42.4205
lfoot -19.2563 8.26466
ltoes -13.2672
3373
root -0.384588 17.3563 -3.52496 2.65284 -1.35967 1.78222
lowerback 15.3857 2.60878 -0.507616
upperback 7.53586 3.35712 0.487838
thorax -0.695097 1.65152 0.271364
lowerneck 1.61678 -5.02266 -5.81128
upperneck 1.17502 -6.81699 5.45649
head 0.507525 -3.42839 2.71565
rclavicle 1.35174e-014 3.18055e-015
rhumerus 24.0472 14.7073 -54.6314
rradius 50.3955
rwrist 4.79983
rhand -19.0367 13.4201
rfingers 7.12502
rthumb 7.2697 -16.4351
lclavicle 1.35174e-014 3.18055e-015
lhumerus 24.0719 -27.2671 48.5784
lradius 60.8857
lwrist -0.702854
lhand -14.0966 28.4248
lfingers 7.12502
lthumb 12.0359 58.0587
rfemur -28.5224 -1.14044 17.4566
rtibia 43.2374
rfoot -16.7414 -9.5099
rtoes -9.44774
lfemur -25.7198 2.93789 -20.5825
ltibia 42.4365
lfoot -19.3503 8.34541
ltoes -13.5946
3374
root -0.383765 17.3569 -3.5158 2.6513 -1.31958 1.81547
lowerback 15.359 2.6044 -0.547219
upperback 7.50172 3.34657 0.483483
thorax -0.718981 1.64555 0.29084
lowerneck 1.75186 -4.96941 -5.76181
upperneck 0.944639 -6.74535 5.43791
head 0.404211 -3.3941 2.709
rclavicle 1.13307e-014 -2.78299e-015
rhumerus 23.7648 15.6233 -53.7591
rradius 50.9391
rwrist 2.8368
rhand -17.7522 12.909
rfingers 7.12502
rthumb 8.50949 -16.8995
lclavicle 1.13307e-014 -2.78299e-015
lhumerus 23.9115 -28.286 47.7076
lradius 61.458
lwrist 0.247857
lhand -12.3912 27.7214
lfingers 7.12502
lthumb 13.68 57.2518
rfemur -28.4871 -1.17658 17.4203
rtibia 43.2473
rfoot -16.7629 -9.55451
rtoes -9.66958
lfemur -25.6876 2.91721 -20.6215
ltibia 42.4331
lfoot -19.319 8.30208
ltoes -13.4873
3375
root -0.379631 17.3563 -3.50669 2.64718 -1.23676 1.81403
lowerback 15.3475 2.58053 -0.496749
upperback 7.46462 3.32269 0.486182
thorax -0.749349 1.63506 0.268543
lowerneck 2.04239 -4.8835 -5.78875
upperneck 0.461884 -6.63286 5.5341
head 0.199042 -3.3418 2.76409
rclavicle 6.95746e-015 -1.11319e-014
rhumerus 23.4925 16.6788 -52.7251
rradius 51.5356
rwrist 0.517879
rhand -16.3099 12.5092
rfingers 7.12502
rthumb 9.90122 -17.2379
lclavicle 6.95746e-015 -1.11319e-014
lhumerus 23.8582 -29.3875 46.7517
lradius 62.0459
lwrist 1.35826
lhand -9.97902 26.889
lfingers 7.12502
lthumb 16.0039 56.248
rfemur -28.435 -1.29263 17.4078
rtibia 43.2425
rfoot -16.7972 -9.51768
rtoes -9.52803
lfemur -25.6461 2.82778 -20.634
ltibia 42.4206
lfoot -19.3078 8.21128
ltoes -12.9849
3376
root -0.378534 17.3582 -3.4971 2.67949 -1.22745 1.81275
lowerback 15.2739 2.58356 -0.51256
upperback 7.44031 3.32586 0.509753
thorax -0.738666 1.63596 0.304042
lowerneck 2.18379 -4.83353 -5.88815
upperneck 0.0881391 -6.56561 5.61334
head 0.058578 -3.31035 2.82035
rclavicle 1.19271e-014 -7.55382e-015
rhumerus 23.297 17.8679 -51.5728
rradius 52.1503
rwrist -2.05748
rhand -14.7606 12.0388
rfingers 7.12502
rthumb 11.3956 -17.6316
lclavicle 1.19271e-014 -7.55382e-015
lhumerus 23.8027 -30.5046 45.7778
lradius 62.7542
lwrist 2.58934
lhand -7.67812 26.1284
lfingers 7.12502
lthumb 18.2185 55.2952
rfemur -28.4063 -1.27718 17.4001
rtibia 43.1965
rfoot -16.7999 -9.5505
rtoes -9.5322
lfemur -25.6328 2.82605 -20.6398
ltibia 42.3976
lfoot -19.3288 8.16885
ltoes -12.8261
3377
root -0.384036 17.3615 -3.48708 2.75018 -1.27607 1.78055
lowerback 15.1697 2.62977 -0.594882
upperback 7.40341 3.37717 0.544576
thorax -0.730016 1.65901 0.382001
lowerneck 2.15041 -4.83226 -5.91477
upperneck -0.131756 -6.5574 5.59462
head -0.00552996 -3.30567 2.82195
rclavicle -6.16232e-015 1.03368e-014
rhumerus 23.0193 19.1173 -50.4074
rradius 52.948
rwrist -4.83827
rhand -12.9622 11.3825
rfingers 7.12502
rthumb 13.1296 -18.1841
lclavicle -6.16232e-015 1.03368e-014
lhumerus 23.7435 -31.6563 44.749
lradius 63.6382
lwrist 3.87886
lhand -5.71235 25.5344
lfingers 7.12502
lthumb 20.1089 54.5137
rfemur -28.3969 -1.14534 17.4541
rtibia 43.1173
rfoot -16.7776 -9.68266
rtoes -9.7105
lfemur -25.6453 2.89775 -20.5865
ltibia 42.3701
lfoot -19.3546 8.14808
ltoes -12.8408
3378
root -0.387118 17.3663 -3.47355 2.82893 -1.2397 1.68358
lowerback 15.0268 2.63802 -0.564543
upperback 7.35523 3.39455 0.587421
thorax -0.706735 1.66788 0.412018
lowerneck 2.17587 -4.80966 -5.9505
upperneck -0.406125 -6.52232 5.62817
head -0.0965912 -3.28847 2.84593
rclavicle -3.37934e-014 1.07344e-014
rhumerus 22.5789 20.4018 -49.2428
rradius 53.9505
rwrist -7.53912
rhand -10.9588 10.8787
rfingers 7.12502
rthumb 15.0601 -18.5535
lclavicle -3.37934e-014 1.07344e-014
lhumerus 23.643 -32.8447 43.7335
lradius 64.6424
lwrist 5.18021
lhand -3.74325 24.8637
lfingers 7.12502
lthumb 22.0005 53.6324
rfemur -28.3778 -1.08404 17.5697
rtibia 43.0184
rfoot -16.7072 -9.87914
rtoes -10.4523
lfemur -25.6583 2.91246 -20.469
ltibia 42.3247
lfoot -19.3971 8.14231
ltoes -12.9949
3379
root -0.38631 17.3702 -3.45968 2.84564 -1.16684 1.65328
lowerback 14.9874 2.62408 -0.511092
upperback 7.29628 3.38398 0.581004
thorax -0.744721 1.66428 0.377061
lowerneck 2.26512 -4.77535 -5.94749
upperneck -0.785438 -6.47088 5.66864
head -0.234169 -3.26388 2.86958
rclavicle 5.00937e-014 -2.06736e-014
rhumerus 22.0628 21.7256 -48.0955
rradius 55.145
rwrist -10.2251
rhand -8.59749 10.4005
rfingers 7.12502
rthumb 17.3339 -18.8465
lclavicle 5.00937e-014 -2.06736e-014
lhumerus 23.5602 -34.1314 42.5776
lradius 65.7867
lwrist 6.76547
lhand -1.8732 24.1327
lfingers 7.12502
lthumb 23.795 52.6792
rfemur -28.2959 -1.0991 17.5973
rtibia 42.9189
rfoot -16.6905 -10.0101
rtoes -11.1214
lfemur -25.5944 2.87043 -20.4418
ltibia 42.2583
lfoot -19.4079 8.25379
ltoes -13.6436
3380
root -0.384503 17.3748 -3.44525 2.82588 -1.13828 1.65775
lowerback 14.9812 2.62576 -0.501361
upperback 7.25252 3.38777 0.578138
thorax -0.786964 1.66663 0.366992
lowerneck 2.31486 -4.75335 -5.98323
upperneck -1.16571 -6.43526 5.67925
head -0.364128 -3.24629 2.88929
rclavicle -1.94809e-014 5.1684e-015
rhumerus 21.5408 23.151 -46.8074
rradius 56.5452
rwrist -12.9323
rhand -6.28966 9.72497
rfingers 7.12502
rthumb 19.5539 -19.3117
lclavicle -1.94809e-014 5.1684e-015
lhumerus 23.52 -35.4508 41.382
lradius 67.0727
lwrist 8.64654
lhand -0.0442352 23.5368
lfingers 7.12502
lthumb 25.548 51.8436
rfemur -28.1464 -1.05885 17.5785
rtibia 42.8323
rfoot -16.7783 -9.94004
rtoes -10.2723
lfemur -25.4667 2.86012 -20.454
ltibia 42.1766
lfoot -19.4 8.18437
ltoes -13.4346
3381
root -0.381854 17.3808 -3.4275 2.83603 -1.12905 1.65429
lowerback 14.8909 2.6233 -0.50338
upperback 7.22919 3.38529 0.581434
thorax -0.764219 1.66544 0.37538
lowerneck 2.28366 -4.72524 -6.0082
upperneck -1.49537 -6.38882 5.67066
head -0.465787 -3.22207 2.89711
rclavicle 1.35174e-014 -7.95139e-015
rhumerus 21.0761 24.5957 -45.5009
rradius 58.0305
rwrist -15.4388
rhand -3.80957 9.23764
rfingers 7.12502
rthumb 21.9368 -19.5386
lclavicle 1.35174e-014 -7.95139e-015
lhumerus 23.4788 -36.7189 40.2004
lradius 68.4642
lwrist 10.5491
lhand 1.85159 23.1297
lfingers 7.12502
lthumb 27.3626 51.1634
rfemur -28.0262 -1.01786 17.5601
rtibia 42.7638
rfoot -16.8727 -9.87131
rtoes -9.33474
lfemur -25.3464 2.84918 -20.4548
ltibia 42.0701
lfoot -19.3891 8.05977
ltoes -12.725
3382
root -0.379546 17.386 -3.40806 2.91597 -1.09941 1.64692
lowerback 14.7321 2.62115 -0.490494
upperback 7.17626 3.38569 0.576868
thorax -0.735187 1.66629 0.369068
lowerneck 2.186 -4.69396 -6.04444
upperneck -1.74942 -6.33708 5.66737
head -0.531738 -3.19437 2.90502
rclavicle 3.51849e-014 -4.77083e-015
rhumerus 20.5484 26.08 -44.2117
rradius 59.6861
rwrist -17.848
rhand -1.25541 9.05809
rfingers 7.12502
rthumb 24.3874 -19.41
lclavicle 3.51849e-014 -4.77083e-015
lhumerus 23.3913 -38.0269 39.0381
lradius 70.0191
lwrist 12.3266
lhand 3.93263 22.815
lfingers 7.12502
lthumb 29.3514 50.5178
rfemur -27.9922 -1.039 17.5532
rtibia 42.7041
rfoot -16.9269 -9.8831
rtoes -9.2464
lfemur -25.3022 2.81642 -20.4621
ltibia 41.9625
lfoot -19.4199 8.08372
ltoes -12.6565
3383
root -0.377879 17.392 -3.38977 3.00275 -1.06703 1.70909
lowerback 14.6091 2.63753 -0.522275
upperback 7.0918 3.40361 0.530487
thorax -0.758323 1.67563 0.339049
lowerneck 2.19195 -4.65714 -6.01284
upperneck -2.1371 -6.27748 5.67827
head -0.660509 -3.1643 2.91187
rclavicle 0 -3.97569e-015
rhumerus 19.9082 27.561 -42.969
rradius 61.5266
rwrist -20.4338
rhand 0.812336 8.81851
rfingers 7.12502
rthumb 26.3682 -19.3681
lclavicle 0 -3.97569e-015
lhumerus 23.383 -39.4621 37.7802
lradius 71.6548
lwrist 14.2048
lhand 5.90904 22.2989
lfingers 7.12502
lthumb 31.2366 49.655
rfemur -27.9785 -1.08479 17.4775
rtibia 42.6472
rfoot -16.9639 -9.87343
rtoes -9.25015
lfemur -25.267 2.74923 -20.5436
ltibia 41.8495
lfoot -19.4878 8.22089
ltoes -13.3145
3384
root -0.37878 17.3979 -3.37271 3.11213 -1.06555 1.73827
lowerback 14.4905 2.65204 -0.576089
upperback 6.96618 3.41645 0.491961
thorax -0.828674 1.68183 0.328866
lowerneck 2.28005 -4.60208 -5.99247
upperneck -2.57832 -6.19629 5.70028
head -0.821677 -3.12434 2.9289
rclavicle -3.18055e-015 2.38542e-015
rhumerus 19.2628 29.0848 -41.7899
rradius 63.443
rwrist -23.0306
rhand 2.48705 8.62294
rfingers 7.12502
rthumb 27.9703 -19.3132
lclavicle -3.18055e-015 2.38542e-015
lhumerus 23.2731 -40.9124 36.5232
lradius 73.4014
lwrist 16.1679
lhand 7.52817 21.7354
lfingers 7.12502
lthumb 32.7783 48.7821
rfemur -27.9909 -1.05227 17.4417
rtibia 42.5797
rfoot -17.0011 -9.91058
rtoes -9.18402
lfemur -25.2689 2.73947 -20.5795
ltibia 41.7503
lfoot -19.4849 8.22962
ltoes -13.5747
